<?xml version="1.0" standalone="no"?>
<!DOCTYPE svg PUBLIC "-//W3C//DTD SVG 20010904//EN"
 "http://www.w3.org/TR/2001/REC-SVG-20010904/DTD/svg10.dtd">
<svg version="1.0" xmlns="http://www.w3.org/2000/svg"
 width="593.179860pt" height="690.046603pt" viewBox="0 0 593.179860 690.046603"
 preserveAspectRatio="xMidYMid meet">
<metadata>
Created by potrace 1.12, written by Peter Selinger 2001-2015
</metadata>
<g transform="translate(-60.684433,738.996423) scale(0.100000,-0.100000)" stroke="none">
<path d="M3495 7375 c-33 -7 -112 -32 -175 -55 -225 -83 -393 -182 -494 -291
-56 -60 -101 -119 -92 -119 4 0 146 110 325 252 59 47 199 116 321 159 87 31
105 33 215 33 110 0 128 -3 217 -33 163 -56 295 -141 491 -315 53 -48 97 -83
97 -77 0 23 -267 286 -337 331 -170 112 -385 155 -568 115z"/>
<path d="M793 6991 c-189 -65 -230 -229 -142 -570 38 -148 61 -196 155 -334
43 -62 102 -157 132 -212 68 -126 111 -178 175 -215 70 -40 158 -54 308 -47
108 4 138 10 231 41 82 27 124 36 176 36 82 0 163 -10 157 -19 -2 -4 12 -5 31
-3 20 3 44 -2 58 -11 22 -15 25 -14 47 10 41 44 134 101 239 146 46 20 113 38
119 32 2 -3 9 0 16 5 21 17 225 29 328 20 108 -11 252 -43 276 -63 21 -17 72
-39 78 -33 2 2 -12 10 -31 17 -26 9 -36 19 -36 34 0 12 -16 86 -35 164 -20 79
-42 185 -50 236 -34 208 -83 261 -182 196 -37 -25 -57 -31 -99 -31 -43 0 -56
4 -68 22 -33 46 -7 175 53 268 51 79 61 122 34 158 -42 56 -136 49 -201 -16
-48 -48 -64 -83 -102 -221 -57 -210 -107 -271 -220 -271 -61 0 -178 38 -270
86 -36 19 -126 79 -200 134 -77 57 -185 126 -252 160 -73 38 -154 90 -215 139
-109 87 -175 125 -255 147 -74 19 -191 17 -255 -5z"/>
<path d="M4455 6863 c3 -15 28 -56 53 -91 183 -249 222 -335 202 -444 -5 -25
-38 -106 -74 -180 -35 -73 -77 -168 -93 -210 -28 -77 -28 -77 -68 -81 -22 -2
16 -2 85 1 130 5 193 -3 311 -40 80 -24 195 -82 192 -97 -2 -6 3 -8 11 -5 8 3
17 0 22 -7 5 -8 3 -10 -7 -4 -10 5 -11 5 -4 -3 6 -5 19 -12 30 -14 11 -2 19
-10 17 -17 -1 -7 2 -10 7 -7 5 4 12 2 16 -3 4 -7 15 -7 33 0 86 33 168 -58
140 -155 -17 -60 -17 -70 3 -128 10 -29 18 -46 18 -38 0 8 -6 33 -14 55 -8 21
-13 41 -11 42 4 4 279 -24 376 -37 89 -13 252 -12 304 1 78 20 110 57 190 223
83 170 129 238 211 305 113 93 142 170 132 356 -12 225 -75 315 -248 351 -102
21 -196 12 -407 -42 -303 -77 -366 -110 -553 -291 -153 -148 -189 -164 -284
-119 -80 37 -141 112 -225 276 -74 145 -75 145 -216 288 -79 78 -146 142 -149
142 -4 0 -4 -12 0 -27z" />
<path d="M4325 5840 l-30 -8 30 0 c17 0 41 4 55 8 l25 8 -25 0 c-14 0 -38 -4
-55 -8z"/>
<path d="M4245 5820 c-13 -5 -14 -9 -5 -9 8 0 24 4 35 9 13 5 14 9 5 9 -8 0
-24 -4 -35 -9z"/>
<path d="M4062 5740 c-34 -22 -62 -42 -62 -46 0 -4 6 -1 13 5 8 6 17 8 20 4 4
-3 7 -1 7 5 0 6 24 25 53 42 28 16 47 30 41 30 -6 0 -39 -18 -72 -40z" />
<path d="M3208 5753 c13 -10 51 -40 85 -66 l62 -48 -47 44 c-26 25 -64 54 -85
66 -24 13 -29 15 -15 4z" />
<path d="M3608 5723 c17 -2 47 -2 65 0 17 2 3 4 -33 4 -36 0 -50 -2 -32 -4z"/>
<path d="M3755 5705 c63 -18 81 -18 35 0 -19 7 -46 14 -60 14 -14 0 -4 -6 25
-14z"/>
<path d="M3423 5680 c-24 -10 -43 -21 -43 -24 0 -4 90 32 99 40 11 10 -18 2
-56 -16z" />
<path d="M3831 5686 c10 -9 69 -36 69 -32 0 6 -55 36 -66 36 -4 0 -5 -2 -3 -4z"/>
<path d="M3960 5665 c-13 -14 -19 -25 -13 -25 6 0 18 11 27 25 9 14 15 25 13
25 -2 0 -14 -11 -27 -25z" />
<path d="M2575 5649 c-223 -46 -334 -112 -397 -236 -19 -37 -38 -81 -42 -97
-5 -19 -10 -26 -15 -18 -4 7 -7 -14 -7 -45 0 -32 -3 -69 -7 -83 -6 -21 -6 -22
3 -5 7 15 9 7 8 -35 -1 -30 3 -65 10 -77 7 -12 12 -31 12 -42 0 -10 4 -21 9
-23 4 -1 20 -25 35 -53 14 -27 26 -47 26 -43 0 3 15 -8 33 -25 51 -50 69 -61
115 -76 23 -8 42 -17 42 -21 0 -4 12 -10 28 -13 15 -3 54 -12 87 -20 199 -50
393 -12 557 111 120 90 181 179 200 293 8 47 15 64 19 52 5 -12 8 -6 8 20 1
20 -4 37 -10 37 -7 0 -10 18 -7 50 1 28 1 50 -2 50 -3 0 -11 21 -18 47 -10 35
-27 61 -77 109 -87 85 -115 99 -285 135 -61 13 -276 19 -325 8z m325 -423 c0
-5 -337 -182 -432 -228 -32 -15 -58 -25 -58 -23 0 6 100 61 292 160 174 90
198 101 198 91z m215 -9 c-66 -45 -657 -346 -635 -324 23 23 236 139 445 243
176 87 238 113 190 81z" fill="#241663"/>
<path d="M4399 5630 c-9 -5 -32 -10 -52 -12 -21 -1 -37 -6 -37 -10 0 -4 -8 -8
-17 -8 -28 0 -86 -23 -130 -52 -23 -15 -47 -28 -53 -28 -6 0 -8 -4 -5 -10 6
-9 -7 -14 -27 -11 -4 0 -4 -7 -1 -16 4 -11 3 -14 -5 -9 -7 4 -12 1 -12 -8 0
-8 -7 -19 -16 -24 -9 -5 -16 -12 -15 -15 0 -7 -1 -12 -18 -66 -6 -19 -11 -51
-11 -72 0 -22 -5 -39 -11 -39 -7 0 -8 -4 -2 -12 5 -7 10 -39 12 -71 1 -35 10
-72 22 -93 10 -19 19 -39 19 -45 0 -22 128 -169 147 -169 6 0 13 -4 15 -8 11
-26 153 -103 235 -128 66 -20 243 -24 308 -6 128 34 160 44 163 52 2 6 10 10
19 10 8 0 28 9 44 21 16 11 34 17 40 13 7 -4 9 -3 6 3 -4 6 13 30 37 55 24 25
49 59 57 77 8 17 17 31 20 31 9 0 20 53 26 130 5 50 8 59 13 40 8 -24 8 -23 9
7 1 17 -3 35 -9 38 -5 3 -10 28 -10 56 0 27 -4 49 -10 49 -5 0 -10 6 -10 13 0
7 -9 32 -20 55 -11 22 -20 45 -20 49 0 5 -26 35 -57 66 -110 111 -252 157
-483 157 -80 -1 -152 -5 -161 -10z m438 -416 c-11 -11 -432 -231 -472 -246
-15 -6 -14 -4 5 12 25 19 453 240 466 240 4 0 4 -3 1 -6z m198 -17 c-59 -40
-625 -330 -631 -324 -8 7 281 166 461 253 161 79 214 101 170 71z" fill="#241663"/>
<path d="M1917 5606 c-4 -10 -7 -25 -6 -34 0 -11 4 -9 10 7 5 13 8 29 6 35 -2
5 -6 2 -10 -8z" />
<path d="M1911 5528 c-1 -24 19 -66 36 -72 10 -4 8 2 -5 22 -11 15 -22 36 -25
47 -4 15 -5 16 -6 3z" />
<path d="M3553 5507 c-51 -19 -51 -28 1 -11 46 16 133 16 181 0 11 -3 7 0 -10
8 -36 18 -127 19 -172 3z" />
<path d="M3761 5488 c2 -2 16 -14 32 -27 31 -28 36 -24 8 7 -10 12 -24 22 -31
22 -7 0 -11 -1 -9 -2z" />
<path d="M1943 5398 c-18 -47 -16 -59 2 -24 9 17 14 36 13 44 -2 8 -9 -1 -15
-20z" />
<path d="M3806 5404 c-4 -14 -5 -28 -3 -31 3 -2 8 8 11 23 4 14 5 28 3 31 -3
2 -8 -8 -11 -23z" />
<path d="M3477 5365 c3 -27 7 -52 9 -54 7 -8 2 54 -6 79 -6 17 -7 9 -3 -25z" />
<path d="M3792 5330 c0 -19 2 -27 5 -17 2 9 2 25 0 35 -3 9 -5 1 -5 -18z" />
<path d="M1913 5265 c0 -22 2 -30 4 -17 2 12 2 30 0 40 -3 9 -5 -1 -4 -23z" />
<path d="M5362 5250 c0 -19 2 -27 5 -17 2 9 2 25 0 35 -3 9 -5 1 -5 -18z" />
<path d="M1903 5170 c0 -25 2 -35 4 -22 2 12 2 32 0 45 -2 12 -4 2 -4 -23z" />
<path d="M3483 5175 c0 -22 2 -30 4 -17 2 12 2 30 0 40 -3 9 -5 -1 -4 -23z" />
<path d="M5373 5160 c0 -25 2 -35 4 -22 2 12 2 32 0 45 -2 12 -4 2 -4 -23z" />
<path d="M3792 5165 c0 -16 4 -43 8 -60 11 -42 11 -1 1 50 -7 34 -9 35 -9 10z" />
<path d="M1912 5075 c0 -16 4 -41 8 -55 l8 -25 0 25 c0 14 -4 39 -8 55 l-8 30
0 -30z" />
<path d="M5362 5060 c0 -19 2 -27 5 -17 2 9 2 25 0 35 -3 9 -5 1 -5 -18z" />
<path d="M3810 5057 c0 -33 100 -237 116 -237 6 0 3 5 -34 64 -13 21 -35 68
-49 105 -23 63 -33 82 -33 68z" />
<path d="M3437 5000 c-8 -22 -13 -40 -11 -40 7 0 36 71 31 76 -2 2 -11 -14
-20 -36z" />
<path d="M1960 4893 c0 -5 7 -18 15 -29 13 -18 14 -18 8 4 -5 22 -23 41 -23
25z" />
<path d="M3346 4835 c-26 -36 -55 -69 -64 -75 -9 -5 -12 -10 -5 -10 11 0 75
72 108 123 32 50 10 28 -39 -38z"/>
<path d="M5267 4808 c-20 -29 -46 -65 -57 -80 -12 -16 -19 -28 -16 -28 6 0 90
109 105 138 20 38 5 24 -32 -30z"/>
<path d="M1996 4830 c16 -32 46 -70 56 -70 5 0 1 10 -11 23 -12 12 -28 31 -37
42 -8 11 -12 13 -8 5z"/>
<path d="M3965 4770 c21 -22 41 -40 44 -40 3 0 -13 18 -34 40 -21 22 -41 40
-44 40 -3 0 13 -18 34 -40z"/>
<path d="M2060 4742 c0 -5 7 -15 15 -22 8 -7 15 -8 15 -2 0 5 -7 15 -15 22 -8
7 -15 8 -15 2z"/>
<path d="M3230 4709 c-57 -58 -153 -115 -172 -103 -6 4 -8 3 -5 -3 12 -19
-209 -92 -248 -82 -5 1 -18 -1 -29 -6 -25 -11 -247 2 -322 19 l-62 13 -7 -84
c-12 -151 -7 -510 9 -633 9 -63 16 -129 16 -146 0 -35 35 -74 67 -74 35 0 69
-37 92 -98 24 -62 64 -109 118 -136 90 -45 147 3 235 200 25 56 81 160 125
230 97 156 105 172 131 251 26 79 40 202 49 438 4 105 7 195 8 200 0 6 9 18
20 27 11 10 17 17 13 18 -3 0 -21 -14 -38 -31z"/>
<path d="M4020 4721 c0 -4 9 -16 20 -26 11 -10 20 -14 20 -9 0 5 -9 17 -20 27
-11 9 -20 13 -20 8z"/>
<path d="M2100 4704 c0 -13 60 -57 67 -50 4 3 1 6 -6 6 -7 0 -9 5 -5 13 4 6 3
9 -1 4 -5 -4 -19 3 -32 15 -13 12 -23 17 -23 12z"/>
<path d="M5165 4690 c-4 -6 33 -73 83 -148 139 -214 204 -332 247 -445 14 -37
31 -58 71 -88 70 -52 84 -73 84 -134 0 -32 15 -94 41 -170 22 -66 49 -157 60
-203 24 -103 46 -148 109 -217 56 -62 78 -101 109 -196 21 -63 87 -186 117
-218 19 -20 26 -9 15 22 l-10 26 34 -20 c19 -11 47 -19 62 -17 26 3 29 8 36
58 10 71 2 127 -26 170 -12 18 -30 48 -40 64 -40 66 -112 122 -146 113 -15 -3
-28 19 -74 127 -77 180 -75 173 -107 339 -16 82 -40 172 -53 200 -13 29 -55
86 -93 128 -38 42 -113 136 -166 210 -115 158 -294 376 -325 396 -15 10 -23
11 -28 3z"/>
<path d="M4125 4636 c17 -14 35 -26 40 -26 11 1 -20 27 -50 41 -11 6 -6 -1 10
-15z"/>
<path d="M2180 4642 c0 -5 16 -16 35 -25 19 -9 35 -15 35 -13 0 2 -16 13 -35
25 -19 11 -35 17 -35 13z"/>
<path d="M5052 4610 c-19 -10 -37 -21 -40 -25 -11 -11 49 14 71 30 29 20 10
17 -31 -5z"/>
<path d="M4180 4605 c0 -7 61 -37 66 -33 2 3 -12 12 -31 21 -19 9 -35 15 -35
12z" fill="#241663"/>
<path d="M2280 4585 c14 -8 32 -14 40 -14 8 0 0 6 -19 14 -42 19 -54 19 -21 0z"/>
<path d="M4270 4562 c8 -5 26 -13 40 -16 17 -5 20 -4 10 2 -8 5 -26 13 -40 16
-17 5 -20 4 -10 -2z"/>
<path d="M4885 4545 c-40 -18 -16 -19 26 0 19 8 27 14 19 14 -8 0 -28 -6 -45
-14z"/>
<path d="M4348 4533 c7 -3 12 -25 12 -61 0 -77 18 -281 31 -367 12 -73 67
-241 101 -310 33 -65 68 -106 105 -121 61 -26 85 6 99 131 3 33 17 105 31 160
19 81 83 495 83 543 0 6 6 12 14 12 8 0 18 4 21 10 7 11 -23 2 -42 -13 -22
-16 -257 -21 -349 -7 -47 7 -87 17 -90 22 -3 4 -11 8 -17 7 -9 0 -9 -2 1 -6z"/>
<path d="M2196 4119 c-14 -11 -37 -40 -51 -64 -39 -65 -133 -299 -156 -385
-12 -44 -37 -100 -59 -135 -54 -83 -133 -287 -165 -425 -15 -63 -40 -155 -55
-205 -42 -136 -64 -282 -56 -381 8 -107 25 -159 51 -159 18 0 21 9 26 70 3 39
13 84 22 101 28 54 115 120 188 143 20 6 45 22 56 34 22 24 103 203 154 337
37 100 64 131 139 166 74 34 98 58 116 120 13 46 13 57 0 87 -23 57 -125 85
-233 64 -40 -8 -43 -7 -53 18 -19 49 -12 146 14 202 14 29 34 94 45 145 11 51
32 129 46 173 14 44 25 88 25 97 0 24 -21 23 -54 -3z"/>
<path d="M4920 3853 c-21 -26 -22 -35 -16 -137 5 -100 4 -107 -12 -100 -9 4
-34 9 -54 12 -33 4 -39 1 -57 -29 -12 -19 -21 -44 -21 -56 0 -23 0 -23 -47 6
-55 34 -98 47 -107 33 -15 -25 38 -144 123 -275 119 -183 136 -234 136 -397 0
-139 -21 -229 -71 -307 -54 -81 -162 -109 -273 -69 -24 9 -55 16 -68 16 -30 0
-71 -42 -114 -117 -42 -73 -90 -119 -140 -134 -33 -11 -55 -10 -128 4 -124 24
-115 29 -107 -57 10 -113 -17 -160 -127 -218 -77 -42 -113 -83 -122 -144 -9
-65 -25 -93 -74 -132 -70 -56 -70 -56 -97 -384 -7 -75 -6 -80 22 -120 l29 -41
-4 -177 c-4 -199 -4 -197 75 -303 27 -37 51 -84 64 -127 30 -102 80 -131 163
-97 43 19 54 34 86 119 15 41 46 101 68 133 64 95 73 118 73 188 0 76 18 106
78 130 98 39 150 117 161 240 4 46 12 90 16 98 22 38 121 161 136 170 32 17
68 9 185 -37 150 -60 179 -87 189 -171 9 -80 37 -123 92 -143 39 -13 51 -12
147 9 116 26 206 25 233 -1 8 -9 17 -38 20 -64 6 -69 20 -91 71 -115 35 -17
55 -21 103 -16 33 3 70 12 82 20 12 8 42 50 67 92 55 95 84 120 124 106 17 -7
33 -25 43 -48 20 -50 7 -125 -47 -270 -22 -57 -41 -116 -42 -131 -3 -24 1 -27
30 -30 121 -12 235 228 262 548 8 101 13 123 43 180 127 241 121 224 121 308
-1 68 -7 97 -56 238 -71 204 -79 220 -203 389 -223 305 -289 424 -346 623 -47
163 -69 213 -149 333 -145 217 -194 274 -272 320 -40 24 -101 69 -135 101 -51
48 -67 58 -96 58 -27 0 -41 -7 -57 -27z"/>
<path d="M3185 3633 c17 -38 16 -82 -3 -158 -11 -44 -26 -116 -32 -160 -12
-76 -12 -83 9 -123 32 -63 71 -84 148 -80 56 4 67 8 98 38 47 46 47 82 0 137
-19 23 -58 58 -86 78 -62 46 -89 97 -89 167 0 35 -7 64 -20 86 -21 34 -37 44
-25 15z"/>
<path d="M4396 3584 c-3 -9 -6 -39 -6 -67 0 -77 -30 -127 -116 -198 -79 -65
-94 -84 -94 -123 0 -47 84 -106 153 -106 36 0 87 30 107 62 28 46 26 141 -5
301 -14 71 -23 133 -20 138 4 5 2 9 -3 9 -6 0 -13 -7 -16 -16z"/>
<path d="M2414 3198 c-59 -55 -81 -98 -106 -216 -11 -53 -28 -113 -38 -132
-25 -48 -75 -93 -137 -124 -60 -30 -73 -49 -73 -105 0 -52 -36 -95 -125 -147
-166 -96 -202 -163 -185 -340 6 -64 12 -78 44 -115 38 -45 47 -90 26 -143 -7
-18 -5 -38 6 -68 19 -54 12 -84 -26 -103 -33 -17 -38 -40 -16 -83 7 -15 16
-51 19 -80 6 -49 40 -178 57 -212 4 -9 24 -16 51 -18 53 -4 64 -13 64 -55 0
-39 27 -47 74 -23 62 33 107 11 91 -43 -4 -15 -19 -50 -34 -80 -35 -68 -29
-91 29 -125 36 -21 47 -34 56 -68 8 -30 25 -55 60 -87 37 -33 49 -51 49 -73 0
-35 17 -37 26 -3 8 31 58 75 85 75 30 0 77 -27 83 -47 2 -10 8 -37 11 -60 4
-24 10 -43 13 -43 4 1 23 26 42 57 19 31 49 65 67 75 39 24 48 69 34 173 -5
45 -5 101 2 156 13 110 6 144 -43 210 -57 75 -68 117 -44 165 11 21 24 40 31
41 19 6 52 -38 75 -99 11 -32 24 -58 29 -58 11 0 41 45 73 108 32 64 60 70 82
17 10 -25 14 -77 14 -194 0 -154 1 -160 28 -212 18 -35 47 -68 87 -99 90 -70
94 -84 54 -187 -38 -98 -34 -123 20 -160 41 -28 115 -31 149 -7 29 20 40 48
57 146 15 86 22 102 72 170 68 94 94 218 97 460 1 134 -1 149 -20 175 -26 35
-57 51 -131 64 -137 25 -161 59 -174 248 -7 104 -14 141 -40 211 -23 62 -34
110 -39 177 -5 78 -10 96 -34 127 -36 48 -92 75 -190 92 -129 23 -186 74 -222
198 -21 75 -15 195 15 283 20 59 20 63 3 109 -25 70 -70 114 -116 114 -29 0
-46 -9 -82 -42z"/>
<path d="M3545 2705 c-72 -13 -134 -29 -406 -109 -47 -14 -108 -29 -135 -34
-45 -9 -46 -10 -13 -11 19 0 105 15 190 35 331 76 335 77 504 78 224 1 649
-21 747 -40 45 -8 104 -24 132 -34 27 -11 52 -18 54 -15 7 7 -90 64 -143 84
-126 47 -184 53 -525 57 -245 2 -345 -1 -405 -11z"/>
<path d="M3756 2351 c-128 -64 -183 -75 -353 -68 -140 5 -194 16 -273 57 -58
30 -61 19 -4 -19 100 -66 239 -98 386 -87 104 7 172 31 271 96 l75 48 31 -19
c41 -25 53 -24 21 2 -52 41 -52 41 -154 -10z"/>
<path d="M4484 1470 c-12 -4 -31 -21 -43 -36 -26 -33 -26 -76 -2 -204 15 -77
24 -98 45 -117 91 -78 180 57 131 197 -8 23 -15 56 -15 72 0 42 -17 68 -55 84
-19 8 -36 14 -37 13 -2 0 -13 -4 -24 -9z"/>
<path d="M4380 1015 c-10 -12 -10 -21 0 -46 14 -32 36 -59 49 -59 10 0 31 46
31 65 0 19 -36 55 -54 55 -7 0 -19 -7 -26 -15z"/>
<path d="M2703 630 c-52 -22 1 -120 65 -120 40 0 74 70 50 103 -16 21 -82 31
-115 17z"/>
</g>
</svg>
